PathFileType	4	(X/Y/Z)	TVC_58_BWA_03_walk_RCNL2025.trc
DataRate	CameraRate	NumFrames	NumMarkers	Units	OrigDataRate	OrigDataStartFrame	OrigNumFrames
100	100	4	27	mm	100	1	335
Frame#	Time	R_Shoulder			L_Shoulder			C7			J_Notch			R_Elbow			L_Elbow			R_Wrist			L_Wrist			R_Asis			L_Asis			R_Psis			L_Psis			Sacral			Thoracic			Sternum			R_Thigh_Lateral			R_Knee_Lateral			R_Shank_Lateral			R_Ankle_Lateral			R_Heel			R_Toe			L_Thigh_Lateral			L_Knee_Lateral			L_Shank_Lateral			L_Ankle_Lateral			L_Heel			L_Toe		
		X1	Y1	Z1	X2	Y2	Z2	X3	Y3	Z3	X4	Y4	Z4	X5	Y5	Z5	X6	Y6	Z6	X7	Y7	Z7	X8	Y8	Z8	X9	Y9	Z9	X10	Y10	Z10	X11	Y11	Z11	X12	Y12	Z12	X13	Y13	Z13	X14	Y14	Z14	X15	Y15	Z15	X16	Y16	Z16	X17	Y17	Z17	X18	Y18	Z18	X19	Y19	Z19	X20	Y20	Z20	X21	Y21	Z21	X22	Y22	Z22	X23	Y23	Z23	X24	Y24	Z24	X25	Y25	Z25	X26	Y26	Z26	X27	Y27	Z27
1	0.00000000	-1941.310181	1340.068848	196.047409	-1916.706787	1354.594727	-160.161530	-1988.752930	1416.767944	6.835356	-1845.639526	1317.228882	22.148956	-2006.219727	1025.569580	258.112579	-1948.364502	1033.769531	-238.916260	-1939.437683	786.285339	303.656631	-1820.681824	816.232635	-274.095123	-1823.447266	911.866211	159.443405	-1832.044800	905.093933	-152.160812	-2054.391846	940.730530	69.638176	-2059.124023	942.361572	-42.860939	-2056.757935	941.546051	13.388618	-2045.059570	1113.040527	4.367188	-1747.661499	1082.018555	12.497269	-1805.063232	705.042969	243.193222	-1721.118774	492.208282	158.634369	-1747.128296	296.323883	212.764099	-1807.924683	93.208435	139.627975	-1863.574707	86.246170	88.538322	-1689.190186	56.928677	106.527153	-1927.484741	665.180725	-222.723495	-1913.911743	460.557983	-114.305710	-1962.953491	274.855408	-160.819046	-2025.702759	62.865829	-59.236542	-2070.078369	60.694553	-8.376429	-1888.599609	42.823887	-35.883766
2	0.01000000	-1933.426392	1339.107178	196.144928	-1908.234741	1354.005493	-159.965118	-1980.421875	1415.898193	7.006552	-1837.527222	1316.114136	22.298162	-2001.279175	1025.086670	257.593842	-1939.196411	1033.174927	-238.793808	-1934.971741	785.465668	302.972275	-1812.032776	815.276398	-273.669250	-1815.437378	911.022034	158.910110	-1825.293945	903.842651	-152.439896	-2046.970337	940.390198	70.696983	-2052.231689	941.986755	-41.839008	-2049.601013	941.188477	14.428988	-2037.596069	1112.399292	4.595363	-1740.090576	1080.664429	12.049056	-1797.661377	704.662415	243.670609	-1714.310181	491.805267	159.321030	-1728.722412	295.649841	212.758820	-1778.306152	89.331154	139.674911	-1834.391602	79.424011	89.491974	-1658.033936	60.012363	104.213692	-1922.339844	664.623962	-222.671906	-1910.994385	459.979431	-114.028954	-1961.369141	274.684387	-160.577789	-2025.536133	63.006908	-59.123344	-2069.951172	60.996914	-8.281691	-1888.576904	42.816792	-35.827469
3	0.02000000	-1925.440674	1338.039307	196.319138	-1899.844360	1353.265625	-159.715591	-1972.098389	1414.955811	7.263816	-1829.396240	1314.925903	22.491716	-1996.062866	1024.465820	257.134155	-1930.169312	1032.416260	-238.578415	-1930.348450	784.498932	302.330612	-1803.544189	814.181671	-273.248428	-1807.408325	910.055176	158.538300	-1818.537720	902.587769	-152.611267	-2039.455688	939.903564	71.772011	-2045.261963	941.506165	-40.688602	-2042.358826	940.704865	15.541704	-2030.048584	1111.651855	4.912478	-1732.456543	1079.240967	11.622906	-1790.356567	704.127197	244.245544	-1707.428223	491.315552	160.031387	-1711.085327	295.427673	212.892670	-1749.676147	86.402245	139.557739	-1805.984009	73.697144	90.160362	-1628.008057	63.749763	101.991890	-1917.089478	664.072571	-222.668304	-1908.015381	459.378693	-113.791801	-1959.721802	274.489014	-160.357376	-2025.354736	63.151962	-59.032768	-2069.822021	61.331482	-8.218545	-1888.557251	42.819099	-35.772587
4	0.03000000	-1917.356689	1336.868774	196.570618	-1891.533203	1352.380981	-159.411972	-1963.782471	1413.944702	7.606872	-1821.247192	1313.668579	22.731224	-1990.568481	1023.709045	256.735992	-1921.286621	1031.498535	-238.269974	-1925.564758	783.388458	301.734253	-1795.216248	812.953979	-272.831116	-1799.357178	908.972351	158.325790	-1811.762329	901.325012	-152.677872	-2031.847778	939.276062	72.858269	-2038.208740	940.920959	-39.424141	-2035.028259	940.098511	16.717064	-2022.416748	1110.802368	5.316006	-1724.756592	1077.753418	11.225240	-1783.128418	703.449768	244.912384	-1700.436890	490.757507	160.745758	-1694.316040	295.553955	213.169937	-1722.257690	84.325180	139.299133	-1778.588501	69.003922	90.547562	-1599.333130	67.945717	99.938423	-1911.737427	663.515930	-222.705093	-1904.967041	458.752441	-113.584465	-1958.047241	274.286255	-160.164688	-2025.160522	63.302532	-58.966145	-2069.690674	61.698925	-8.186966	-1888.541260	42.827812	-35.720074
